<svg width="30" height="28" viewBox="0 0 30 28" fill="none" xmlns="http://www.w3.org/2000/svg">
<path d="M2.32772 9.71178V9.6924C2.32769 7.77777 2.88372 5.90602 3.92566 4.3133C4.96761 2.72058 6.44877 1.47825 8.1823 0.743046C9.91582 0.00784284 11.824 -0.187293 13.6662 0.182256C15.5083 0.551806 17.2019 1.46948 18.5332 2.81951C19.5807 2.29228 20.7507 2.0706 21.9139 2.17898C23.0772 2.28735 24.1884 2.72156 25.1249 3.43362C26.0613 4.14569 26.7865 5.10789 27.2203 6.21393C27.6542 7.31996 27.7797 8.52677 27.5832 9.70102C27.8722 9.72837 28.1525 9.81617 28.4068 9.95895C28.661 10.1017 28.8837 10.2964 29.0608 10.5309C29.238 10.7653 29.3659 11.0345 29.4365 11.3216C29.5071 11.6086 29.519 11.9075 29.4713 12.1995C28.5167 18.0557 26.1554 21.7625 22.3918 23.3219V24.7692C22.3918 25.6261 22.0581 26.4479 21.4639 27.0537C20.8698 27.6596 20.064 28 19.2238 28H10.7758C9.93556 28 9.12976 27.6596 8.53564 27.0537C7.94152 26.4479 7.60775 25.6261 7.60775 24.7692V23.3219C3.84414 21.7625 1.48291 18.0557 0.528281 12.1995C0.482209 11.9153 0.492511 11.6245 0.558577 11.3444C0.624643 11.0643 0.745131 10.8006 0.91291 10.5689C1.08069 10.3371 1.29235 10.1421 1.53536 9.99521C1.77838 9.84836 2.04781 9.75272 2.32772 9.71394V9.71178ZM4.43973 9.6924H6.55174C6.55174 8.26432 7.10803 6.89473 8.09823 5.88492C9.08843 4.87512 10.4314 4.30781 11.8318 4.30781C13.2321 4.30781 14.5751 4.87512 15.5653 5.88492C16.5555 6.89473 17.1118 8.26432 17.1118 9.6924H19.2238C19.2238 7.69309 18.445 5.77566 17.0587 4.36193C15.6725 2.9482 13.7923 2.15398 11.8318 2.15398C9.87128 2.15398 7.99109 2.9482 6.60481 4.36193C5.21853 5.77566 4.43973 7.69309 4.43973 9.6924ZM8.66376 9.6924H14.9998C14.9998 8.83555 14.666 8.0138 14.0719 7.40791C13.4778 6.80203 12.672 6.46165 11.8318 6.46165C10.9916 6.46165 10.1858 6.80203 9.59165 7.40791C8.99753 8.0138 8.66376 8.83555 8.66376 9.6924ZM23.1648 9.6924H25.4268C25.5862 9.05588 25.6011 8.39065 25.4703 7.74738C25.3394 7.10412 25.0663 6.4998 24.6718 5.98048C24.2772 5.46116 23.7716 5.04054 23.1935 4.75067C22.6154 4.4608 21.98 4.30934 21.3358 4.30781C20.8289 4.30781 20.3474 4.39827 19.8997 4.56412C20.2735 5.17581 20.5818 5.83488 20.8184 6.52626C21.2207 6.42452 21.6434 6.44547 22.0341 6.58651C22.4247 6.72756 22.7662 6.9825 23.0161 7.31969C23.266 7.65688 23.4133 8.06148 23.4398 8.48328C23.4662 8.90508 23.3706 9.32551 23.1648 9.6924ZM20.2798 23.6923H9.71976V24.7692C9.71976 25.0549 9.83102 25.3288 10.0291 25.5307C10.2271 25.7327 10.4957 25.8462 10.7758 25.8462H19.2238C19.5039 25.8462 19.7725 25.7327 19.9705 25.5307C20.1686 25.3288 20.2798 25.0549 20.2798 24.7692V23.6923ZM8.97633 21.5385H21.0233C24.3729 20.44 26.4934 17.3342 27.3889 11.8462H2.61073C3.50622 17.3342 5.62668 20.44 8.97633 21.5385Z" fill="#004FC7" fill-opacity="0.5"/>
</svg>
