<svg width="29" height="28" viewBox="0 0 29 28" fill="none" xmlns="http://www.w3.org/2000/svg">
<path d="M6.09673 9.31352L6.09676 9.31355L6.10176 9.30845L6.86542 8.5302C7.40617 7.99197 8.30653 7.96697 8.90429 8.53917L8.93147 8.57993L8.98079 8.63024C9.86043 9.52772 11.0035 9.93039 12.1695 10.0453L12.1738 10.0457C13.3771 10.1574 14.5544 10.8006 15.3415 11.9895C16.1835 13.3326 16.1686 15.1322 15.2881 16.459L15.2836 16.4658L15.2792 16.4728C14.9449 17.0013 14.4955 17.4473 13.9644 17.7775C13.4334 18.1077 12.8345 18.3135 12.2126 18.3796C11.5907 18.4456 10.9619 18.3701 10.3734 18.1587C9.7848 17.9474 9.25168 17.6057 8.81391 17.1592L8.80893 17.1541L8.80386 17.1491C8.10951 16.4672 7.7095 15.5848 7.6091 14.6562L7.60898 14.6551C7.47574 13.4395 6.98877 12.2542 6.09673 11.3623L6.09675 11.3622L6.0921 11.3577C5.53894 10.8141 5.53225 9.87793 6.09673 9.31352ZM18.6425 12.205C22.2867 14.0073 24.8021 17.7684 24.8021 22.1053V22.8289H6.69052C5.16734 21.6157 4.19406 19.764 4.19406 17.6842C4.19406 16.8127 4.36482 15.9881 4.67412 15.2291C4.89654 16.7566 5.60739 18.1504 6.6942 19.2681L6.69519 19.2691C8.05314 20.6604 9.68206 20.6529 11.2259 20.6457C11.3358 20.6452 11.4452 20.6447 11.554 20.6447C13.7479 20.6447 16.3693 20.2917 17.7799 18.093C18.9202 16.3612 19.2127 14.1712 18.6425 12.205ZM3.36386 26.6064C3.13436 26.3769 2.96087 26.1019 2.85217 25.8026H27.6206C27.3167 26.6503 26.51 27.25 25.5521 27.25H4.91793C4.33502 27.25 3.77601 27.0185 3.36386 26.6064ZM4.61291 6.58334L4.12737 7.06881L2.60179 5.55409L2.21965 5.17467L1.73798 5.41548C1.61301 5.47795 1.45949 5.45964 1.34961 5.36252C1.20919 5.20608 1.22422 4.97488 1.35086 4.84826C1.42188 4.77725 1.49633 4.74742 1.58436 4.74253L2.25438 4.70531L2.29161 4.03529C2.29641 3.94888 2.32527 3.87554 2.39364 3.80566C2.46427 3.73865 2.558 3.70121 2.65554 3.70121C2.75015 3.70121 2.84118 3.73643 2.91102 3.79971C3.01093 3.91249 3.02333 4.07585 2.96987 4.17894L2.71896 4.66276L3.10165 5.05083L4.61291 6.58334ZM27.7499 9.6821V12.5132H27.4223V9.6821C27.4223 6.79639 25.3329 4.37113 22.529 4.00018V3.52604C23.5732 3.24953 24.4098 2.41312 24.6864 1.36895H25.0396C24.8938 1.98789 24.5711 2.54353 24.1228 2.99174L23.3752 3.73927L24.3277 4.19787C25.3583 4.694 26.2269 5.47228 26.8326 6.4423C27.4384 7.41232 27.7565 8.53426 27.7499 9.67781V9.6821ZM21.2042 7.44368H19.3324C17.4768 7.44368 15.985 5.95201 15.985 4.09684C15.985 2.49966 17.0907 1.1719 18.5824 0.833505V1.16815C17.324 1.47706 16.3126 2.54822 16.3126 3.97895C16.3126 4.80395 16.6575 5.5908 17.1833 6.1703C17.7098 6.75044 18.468 7.17526 19.3324 7.17526H21.2042C23.1526 7.17526 24.699 8.59352 24.699 10.3158V11.0395H24.3566V10.6989C24.3566 9.71241 24.0078 8.88478 23.4075 8.30464C22.8136 7.73069 22.0199 7.44368 21.2042 7.44368Z" stroke="#004FC7" stroke-opacity="0.5" stroke-width="1.5"/>
</svg>
