<svg width="24" height="28" viewBox="0 0 24 28" fill="none" xmlns="http://www.w3.org/2000/svg">
<path d="M5.68264 12.5481C6.05905 12.5481 6.42004 12.401 6.6862 12.1393C6.95236 11.8775 7.10189 11.5225 7.10189 11.1523C7.10189 10.7821 6.95236 10.4271 6.6862 10.1653C6.42004 9.90354 6.05905 9.75648 5.68264 9.75648C5.30624 9.75648 4.94525 9.90354 4.67909 10.1653C4.41293 10.4271 4.2634 10.7821 4.2634 11.1523C4.2634 11.5225 4.41293 11.8775 4.67909 12.1393C4.94525 12.401 5.30624 12.5481 5.68264 12.5481ZM12.7789 15.3369C12.7789 15.7071 12.6293 16.0622 12.3632 16.3239C12.097 16.5857 11.736 16.7327 11.3596 16.7327C10.9832 16.7327 10.6222 16.5857 10.3561 16.3239C10.0899 16.0622 9.94037 15.7071 9.94037 15.3369C9.94037 14.9667 10.0899 14.6117 10.3561 14.3499C10.6222 14.0882 10.9832 13.9411 11.3596 13.9411C11.736 13.9411 12.097 14.0882 12.3632 14.3499C12.6293 14.6117 12.7789 14.9667 12.7789 15.3369ZM5.68264 20.9174C6.05905 20.9174 6.42004 20.7703 6.6862 20.5086C6.95236 20.2468 7.10189 19.8918 7.10189 19.5216C7.10189 19.1514 6.95236 18.7964 6.6862 18.5346C6.42004 18.2728 6.05905 18.1258 5.68264 18.1258C5.30624 18.1258 4.94525 18.2728 4.67909 18.5346C4.41293 18.7964 4.2634 19.1514 4.2634 19.5216C4.2634 19.8918 4.41293 20.2468 4.67909 20.5086C4.94525 20.7703 5.30624 20.9174 5.68264 20.9174ZM0.00567774 3.71261C0.00567774 1.62448 1.75135 -0.201245 4.00794 0.017898C11.3557 0.733808 18.1632 4.13416 23.0854 9.54711C24.604 11.2123 24.1314 13.6843 22.4056 14.914C19.9055 16.6963 17.4062 18.4797 14.9077 20.2641C14.9049 20.8741 14.9049 21.2705 14.9063 21.787V22.6649C14.9065 23.022 14.8271 23.3748 14.6737 23.6984C14.5203 24.022 14.2966 24.3086 14.0185 24.538C13.7403 24.7674 13.4143 24.9341 13.0636 25.0262C12.7128 25.1184 12.3458 25.1338 11.9883 25.0713C11.6988 26.2243 10.6656 27.2027 9.22933 27.2027C8.23586 27.2027 7.43825 26.7351 6.94577 26.0651L5.06527 27.3995C2.95344 28.9 -0.00141873 27.4163 5.11062e-07 24.8522L0.00567774 3.71261ZM3.79789 2.10185C2.93357 2.0181 2.1317 2.72019 2.1317 3.7154V4.44123C5.69455 4.5877 9.18382 5.48529 12.3633 7.07323C15.5428 8.66118 18.3383 10.9024 20.5606 13.6452L21.1552 13.2209C21.9755 12.6346 22.0806 11.5836 21.4987 10.9457C16.9325 5.92279 10.6153 2.76699 3.79789 2.10185ZM2.12744 24.8536C2.12744 25.7092 3.1124 26.2047 3.81634 25.705L6.83649 23.5625C6.99561 23.4499 7.18326 23.3827 7.37874 23.3683C7.57422 23.3539 7.76994 23.3929 7.94432 23.481C8.1187 23.569 8.26497 23.7027 8.367 23.8674C8.46903 24.032 8.52286 24.2211 8.52255 24.4139C8.52255 24.7908 8.81917 25.1118 9.22791 25.1118C9.3215 25.1127 9.41433 25.0953 9.50101 25.0606C9.58769 25.0259 9.66648 24.9746 9.73279 24.9096C9.7991 24.8447 9.8516 24.7674 9.88724 24.6823C9.92288 24.5972 9.94094 24.5059 9.94037 24.4139V22.6622C9.94037 22.3845 10.0525 22.1182 10.2521 21.9219C10.4518 21.7256 10.7225 21.6153 11.0048 21.6153C11.2871 21.6153 11.5578 21.7256 11.7575 21.9219C11.9571 22.1182 12.0692 22.3845 12.0692 22.6622C12.0692 22.859 12.2268 23.0125 12.4212 23.0125C12.5153 23.0125 12.6056 22.9757 12.6721 22.9103C12.7386 22.8449 12.776 22.7561 12.776 22.6635V21.7954C12.7746 21.1393 12.7732 20.6675 12.7831 19.717C12.7844 19.5535 12.8246 19.3926 12.9006 19.2472C12.9765 19.1018 13.0859 18.9758 13.2202 18.8795C14.5004 17.9639 16.7627 16.3503 18.8348 14.8735C16.8112 12.3977 14.2752 10.3737 11.3951 8.93604C8.51496 7.49834 5.35676 6.67985 2.13028 6.53494V24.8536H2.12744Z" fill="#004FC7" fill-opacity="0.5"/>
</svg>
