<svg width="29" height="28" viewBox="0 0 29 28" fill="none" xmlns="http://www.w3.org/2000/svg">
<path d="M14.5084 0C13.0132 0 12.0444 0.9996 11.5264 1.82C11.0535 2.56718 10.7629 3.41505 10.678 4.2952C10.608 5.4824 10.79 6.6528 11.5264 7.5376C12.2964 8.4616 13.408 8.764 14.5084 8.764C15.6368 8.764 16.74 8.4196 17.4988 7.504C18.2296 6.6192 18.4284 5.4572 18.3472 4.2784C18.2507 3.41351 17.9597 2.58167 17.496 1.8452C16.9864 1.0332 16.0204 0 14.5084 0ZM13.4724 4.4576C13.4836 4.2812 13.6124 3.7632 13.8924 3.3124C14.1808 2.8588 14.402 2.8 14.5084 2.8C14.598 2.8 14.8248 2.856 15.1244 3.332C15.4128 3.7968 15.5444 4.3204 15.5528 4.4744C15.6088 5.2696 15.4408 5.6 15.3428 5.7176C15.2728 5.8016 15.0852 5.964 14.5084 5.964C13.8868 5.964 13.7244 5.8016 13.6768 5.7456C13.5984 5.6504 13.422 5.3256 13.4724 4.4576ZM25.7 25.2V15.4C25.7 14.2861 25.2575 13.2178 24.4698 12.4302C23.6822 11.6425 22.6139 11.2 21.5 11.2H7.5C6.38609 11.2 5.3178 11.6425 4.53015 12.4302C3.7425 13.2178 3.3 14.2861 3.3 15.4V25.2H1.9C1.5287 25.2 1.1726 25.3475 0.91005 25.61C0.6475 25.8726 0.5 26.2287 0.5 26.6C0.5 26.9713 0.6475 27.3274 0.91005 27.59C1.1726 27.8525 1.5287 28 1.9 28H27.1C27.4713 28 27.8274 27.8525 28.09 27.59C28.3525 27.3274 28.5 26.9713 28.5 26.6C28.5 26.2287 28.3525 25.8726 28.09 25.61C27.8274 25.3475 27.4713 25.2 27.1 25.2H25.7ZM7.5 14H21.5C21.8713 14 22.2274 14.1475 22.49 14.4101C22.7525 14.6726 22.9 15.0287 22.9 15.4V17.6008L20.4724 19.4936C20.3533 19.5863 20.2075 19.638 20.0566 19.641C19.9057 19.644 19.7579 19.5982 19.6352 19.5104L16.53 17.2984C15.9372 16.8764 15.2277 16.6496 14.5 16.6496C13.7723 16.6496 13.0628 16.8764 12.47 17.2984L9.362 19.5104C9.23928 19.5982 9.09148 19.644 8.94061 19.641C8.78974 19.638 8.64389 19.5863 8.5248 19.4936L6.1 17.6008V15.4C6.1 15.0287 6.2475 14.6726 6.51005 14.4101C6.7726 14.1475 7.1287 14 7.5 14ZM6.1 21.1512L6.8028 21.7C7.39711 22.1639 8.12533 22.4235 8.87907 22.4401C9.63281 22.4568 10.3718 22.2296 10.986 21.7924L14.094 19.5804C14.2126 19.496 14.3545 19.4506 14.5 19.4506C14.6455 19.4506 14.7874 19.496 14.906 19.5804L18.014 21.7924C18.628 22.2289 19.3664 22.4557 20.1195 22.4391C20.8727 22.4224 21.6003 22.1632 22.1944 21.7L22.9 21.1512V25.2H6.1V21.1512Z" fill="#004FC7" fill-opacity="0.5"/>
</svg>
