<svg width="22" height="28" viewBox="0 0 22 28" fill="none" xmlns="http://www.w3.org/2000/svg">
<path d="M20.9719 2.0862C21.108 2.06358 21.2383 2.0144 21.3553 1.94144C21.4723 1.86848 21.5739 1.77319 21.6541 1.661C21.7343 1.54881 21.7916 1.42192 21.8228 1.28757C21.8539 1.15323 21.8584 1.01406 21.8357 0.878007C21.8131 0.741959 21.7639 0.611696 21.691 0.494658C21.618 0.377619 21.5227 0.276097 21.4105 0.195886C21.2983 0.115675 21.1715 0.0583475 21.0371 0.0271761C20.9028 -0.00399522 20.7636 -0.00839979 20.6275 0.0142137L12.2276 1.4142C12.0172 1.44903 11.8223 1.54713 11.669 1.69544C11.5157 1.84374 11.4112 2.03523 11.3694 2.2444L10.9802 4.20018H1.19989C0.921419 4.20018 0.654349 4.31081 0.457438 4.50772C0.260526 4.70463 0.149902 4.9717 0.149902 5.25017V10.8501C0.150033 11.9962 0.582647 13.1 1.36128 13.9409C2.13992 14.7818 3.20722 15.2979 4.34987 15.3861V16.1001C4.34987 18.8343 6.30986 21.1107 8.89984 21.6021V25.9H5.39986C5.12139 25.9 4.85432 26.0106 4.65741 26.2076C4.46049 26.4045 4.34987 26.6715 4.34987 26.95C4.34987 27.2285 4.46049 27.4956 4.65741 27.6925C4.85432 27.8894 5.12139 28 5.39986 28H14.4998C14.7783 28 15.0453 27.8894 15.2422 27.6925C15.4392 27.4956 15.5498 27.2285 15.5498 26.95C15.5498 26.6715 15.4392 26.4045 15.2422 26.2076C15.0453 26.0106 14.7783 25.9 14.4998 25.9H10.9998V21.6021C12.2798 21.3574 13.4345 20.6742 14.265 19.6699C15.0955 18.6657 15.5498 17.4033 15.5498 16.1001V15.3861C16.6924 15.2979 17.7597 14.7818 18.5384 13.9409C19.317 13.1 19.7496 11.9962 19.7498 10.8501V5.25017C19.7498 4.9717 19.6391 4.70463 19.4422 4.50772C19.2453 4.31081 18.9782 4.20018 18.6998 4.20018H13.1208L13.2874 3.36719L20.9733 2.0862H20.9719ZM17.6498 8.40015H12.2808L12.7008 6.30017H17.6498V8.40015ZM11.8608 10.5001H17.6498V10.8501C17.6498 11.4999 17.3916 12.1231 16.9322 12.5825C16.4727 13.042 15.8496 13.3001 15.1998 13.3001H14.4998C14.2213 13.3001 13.9542 13.4107 13.7573 13.6076C13.5604 13.8046 13.4498 14.0716 13.4498 14.3501V16.1001C13.4498 17.0283 13.0811 17.9186 12.4247 18.5749C11.7683 19.2313 10.8781 19.6001 9.94983 19.6001C9.02158 19.6001 8.13135 19.2313 7.47497 18.5749C6.8186 17.9186 6.44985 17.0283 6.44985 16.1001V14.3501C6.44985 14.0716 6.33923 13.8046 6.14232 13.6076C5.94541 13.4107 5.67834 13.3001 5.39986 13.3001H4.69987C4.05009 13.3001 3.42693 13.042 2.96747 12.5825C2.50801 12.1231 2.24989 11.4999 2.24989 10.8501V10.5001H9.71883L8.57084 16.2443C8.53846 16.3814 8.53403 16.5237 8.5578 16.6626C8.58157 16.8015 8.63306 16.9342 8.70921 17.0528C8.78535 17.1714 8.88459 17.2735 9.001 17.3529C9.11742 17.4323 9.24863 17.4875 9.38682 17.5151C9.52502 17.5428 9.66736 17.5423 9.80537 17.5138C9.94337 17.4852 10.0742 17.4292 10.1901 17.349C10.306 17.2688 10.4046 17.1661 10.48 17.0471C10.5553 16.928 10.606 16.7949 10.6288 16.6559L11.8608 10.5001ZM10.1388 8.40015H2.24989V6.30017H10.5588L10.1388 8.40015Z" fill="#004FC7" fill-opacity="0.5"/>
</svg>
