<svg width="171" height="141" viewBox="0 0 171 141" fill="none" xmlns="http://www.w3.org/2000/svg">
<path d="M3.25229 64.1044C2.94028 62.8608 2.91736 61.563 3.18525 60.3093C3.45315 59.0557 4.00483 57.8791 4.79841 56.869C5.592 55.859 6.60664 55.0419 7.76531 54.4798C8.92399 53.9177 10.1963 53.6254 11.4856 53.625H159.514C160.804 53.6254 162.076 53.9177 163.235 54.4798C164.393 55.0419 165.408 55.859 166.202 56.869C166.995 57.8791 167.547 59.0557 167.815 60.3093C168.083 61.563 168.06 62.8608 167.748 64.1044L152.376 125.217C151.458 128.868 149.339 132.109 146.355 134.425C143.372 136.741 139.695 137.999 135.91 138H35.0904C31.3049 137.999 27.6281 136.741 24.6446 134.425C21.661 132.109 19.5419 128.868 18.6239 125.217L3.25229 64.1128V64.1044Z" stroke="#004FC7" stroke-width="5" stroke-linejoin="round"/>
<path d="M60.034 87.375V104.25M110.961 87.375V104.25M34.5703 53.625L68.5219 3M136.425 53.625L102.473 3" stroke="#004FC7" stroke-width="5" stroke-linecap="round"/>
<path d="M58 126.761L60.024 124.612C74.5279 109.217 99.3031 110.231 112.5 126.761V126.761" stroke="#004FC7" stroke-width="5" stroke-linecap="round"/>
</svg>
