<svg width="45" height="23" viewBox="0 0 45 23" fill="none" xmlns="http://www.w3.org/2000/svg">
<path d="M11.7198 0H16.4451V14.1929H12.9063V5.29737L9.78382 14.1929H6.59887L3.53883 5.47728V14.1929H0V0H4.72537L8.22257 9.91507L11.7198 0Z" fill="#004FC7"/>
<path d="M16.9209 10.9945H23.728V14.1929H13.3821V0H23.5198V3.19841H16.9209V5.59722H22.479V8.59573H16.9209V10.9945Z" fill="#004FC7"/>
<path d="M31.4628 8.56717H35.0017V22.7601H30.8383L25.8424 13.7846V22.7601H22.3035V8.56717H26.4669L31.4628 17.5427V8.56717Z" fill="#004FC7"/>
<path d="M43.293 21.3808C42.1551 22.4603 40.6354 23 38.7342 23C36.8329 23 35.3133 22.4603 34.1754 21.3808C33.0374 20.3013 32.4684 18.8687 32.4684 17.0829V8.56717H36.0072V17.0829C36.0072 17.9092 36.2501 18.5689 36.7358 19.062C37.2215 19.555 37.8877 19.8016 38.7342 19.8016C39.5807 19.8016 40.2469 19.555 40.7326 19.062C41.2183 18.5689 41.4612 17.9092 41.4612 17.0829V8.56717H45V17.0829C45 18.8687 44.431 20.3013 43.293 21.3808Z" fill="#004FC7"/>
</svg>
