<svg width="35" height="37" viewBox="0 0 35 37" fill="none" xmlns="http://www.w3.org/2000/svg">
<path d="M17.5201 13.6392C16.3229 13.6392 15.2018 14.1037 14.353 14.9525C13.5081 15.8013 13.0397 16.9224 13.0397 18.1196C13.0397 19.3167 13.5081 20.4378 14.353 21.2867C15.2018 22.1315 16.3229 22.6 17.5201 22.6C18.7172 22.6 19.8383 22.1315 20.6871 21.2867C21.532 20.4378 22.0004 19.3167 22.0004 18.1196C22.0004 16.9224 21.532 15.8013 20.6871 14.9525C20.2726 14.5347 19.7791 14.2035 19.2354 13.978C18.6917 13.7526 18.1086 13.6374 17.5201 13.6392ZM34.0282 23.0684L31.4096 20.8302C31.5337 20.0695 31.5978 19.2927 31.5978 18.52C31.5978 17.7472 31.5337 16.9665 31.4096 16.2097L34.0282 13.9715C34.226 13.8022 34.3675 13.5767 34.4341 13.3249C34.5006 13.0731 34.4889 12.8071 34.4005 12.5622L34.3645 12.4581C33.6438 10.4429 32.564 8.57489 31.1774 6.94468L31.1053 6.8606C30.9369 6.66261 30.7125 6.52029 30.4616 6.45239C30.2108 6.38449 29.9452 6.39419 29.6999 6.48022L26.4488 7.63735C25.2476 6.65239 23.9103 5.87563 22.4609 5.33511L21.8323 1.93579C21.7848 1.67971 21.6606 1.44412 21.4761 1.26032C21.2916 1.07653 21.0555 0.953219 20.7993 0.906787L20.6911 0.886768C18.6091 0.5104 16.415 0.5104 14.3329 0.886768L14.2248 0.906787C13.9686 0.953219 13.7325 1.07653 13.548 1.26032C13.3635 1.44412 13.2393 1.67971 13.1918 1.93579L12.5592 5.35112C11.1235 5.89596 9.78609 6.67083 8.59935 7.64536L5.32415 6.48022C5.07898 6.39351 4.81322 6.38345 4.56219 6.4514C4.31116 6.51934 4.08676 6.66206 3.91878 6.8606L3.84671 6.94468C2.46253 8.57663 1.383 10.4441 0.659605 12.4581L0.62357 12.5622C0.443394 13.0626 0.591539 13.6232 0.995933 13.9715L3.64652 16.2337C3.5224 16.9865 3.46234 17.7552 3.46234 18.516C3.46234 19.2847 3.5224 20.0535 3.64652 20.7982L1.00394 23.0604C0.806131 23.2297 0.664555 23.4553 0.598041 23.707C0.531526 23.9588 0.543223 24.2248 0.631577 24.4698L0.667613 24.5739C1.39232 26.5878 2.46136 28.4497 3.85472 30.0873L3.92679 30.1713C4.09517 30.3693 4.31959 30.5116 4.57047 30.5795C4.82135 30.6474 5.08691 30.6377 5.33216 30.5517L8.60736 29.3866C9.80052 30.3675 11.1298 31.1443 12.5672 31.6808L13.1998 35.0961C13.2473 35.3522 13.3715 35.5878 13.556 35.7716C13.7405 35.9554 13.9766 36.0787 14.2328 36.1251L14.341 36.1452C16.4435 36.5236 18.5966 36.5236 20.6992 36.1452L20.8073 36.1251C21.0635 36.0787 21.2996 35.9554 21.4841 35.7716C21.6686 35.5878 21.7928 35.3522 21.8403 35.0961L22.4689 31.6968C23.9183 31.1523 25.2556 30.3795 26.4568 29.3946L29.7079 30.5517C29.9531 30.6384 30.2189 30.6485 30.4699 30.5805C30.7209 30.5126 30.9453 30.3699 31.1133 30.1713L31.1854 30.0873C32.5787 28.4417 33.6478 26.5878 34.3725 24.5739L34.4085 24.4698C34.5807 23.9733 34.4326 23.4167 34.0282 23.0684ZM17.5201 25.1584C13.6323 25.1584 10.4812 22.0074 10.4812 18.1196C10.4812 14.2318 13.6323 11.0807 17.5201 11.0807C21.4078 11.0807 24.5589 14.2318 24.5589 18.1196C24.5589 22.0074 21.4078 25.1584 17.5201 25.1584Z" fill="#004FC7" fill-opacity="0.5"/>
</svg>
