<svg width="29" height="28" viewBox="0 0 29 28" fill="none" xmlns="http://www.w3.org/2000/svg">
<path d="M13.7041 14.5455C13.7782 14.2191 13.9458 13.9218 14.186 13.6905C14.2599 13.6167 14.3462 13.5565 14.4409 13.513L14.4501 13.5107C14.75 13.5623 15.0581 13.4929 15.3077 13.3175C15.5572 13.1421 15.7284 12.8747 15.7841 12.5731C15.8397 12.2716 15.7755 11.96 15.6053 11.7058C15.435 11.4516 15.1724 11.2751 14.8741 11.2144C13.9427 11.0159 13.1133 11.5018 12.6035 11.9853C12.0544 12.5016 11.6073 13.242 11.4358 14.0643C11.4045 14.2145 11.4028 14.3694 11.4308 14.5202C11.4588 14.671 11.5161 14.8148 11.5992 14.9433C11.6824 15.0718 11.7898 15.1826 11.9154 15.2692C12.0411 15.3559 12.1824 15.4167 12.3313 15.4483C12.4802 15.4799 12.6339 15.4817 12.7835 15.4534C12.9331 15.4251 13.0757 15.3674 13.2031 15.2836C13.3306 15.1997 13.4405 15.0914 13.5264 14.9648C13.6124 14.8381 13.6727 14.6957 13.7041 14.5455ZM15.1081 22.441C16.1122 22.441 17.1064 22.2416 18.0341 21.8542C18.9617 21.4668 19.8046 20.899 20.5146 20.1832C21.2246 19.4674 21.7878 18.6176 22.172 17.6823C22.5562 16.7471 22.754 15.7447 22.754 14.7324C22.754 13.7201 22.5562 12.7177 22.172 11.7824C21.7878 10.8472 21.2246 9.99738 20.5146 9.28156C19.8046 8.56575 18.9617 7.99794 18.0341 7.61055C17.1064 7.22315 16.1122 7.02376 15.1081 7.02376C13.0803 7.02376 11.1356 7.83592 9.70169 9.28156C8.26781 10.7272 7.46226 12.6879 7.46226 14.7324C7.46226 16.7768 8.26781 18.7375 9.70169 20.1832C11.1356 21.6288 13.0803 22.441 15.1081 22.441ZM15.1081 20.105C13.6948 20.105 12.3394 19.539 11.34 18.5314C10.3406 17.5239 9.77919 16.1573 9.77919 14.7324C9.77919 13.3075 10.3406 11.9409 11.34 10.9333C12.3394 9.92576 13.6948 9.35971 15.1081 9.35971C16.5215 9.35971 17.8769 9.92576 18.8763 10.9333C19.8756 11.9409 20.4371 13.3075 20.4371 14.7324C20.4371 16.1573 19.8756 17.5239 18.8763 18.5314C17.8769 19.539 16.5215 20.105 15.1081 20.105ZM17.2003 0.0252766C19.0214 0.14441 20.7406 0.69102 21.9825 1.48057C24.7674 3.25355 25.7892 4.87937 26.6789 6.44211C27.5686 8.00953 28.5 10.0068 28.5 13.0972C28.5 14.5455 28.3401 15.2696 28.2081 15.877L28.1849 15.9821C28.0737 16.4843 27.9833 16.9422 28.0783 18.1172C28.1831 19.7023 27.9048 21.2894 27.2674 22.7423C26.6395 24.1976 25.6432 25.5595 24.2948 26.4098C21.5538 28.1384 18.2453 28.5121 15.1429 27.2624C13.7643 26.7064 13.3403 26.5966 12.8769 26.5663C12.5209 26.5529 12.1645 26.5568 11.8088 26.5779H11.7949C11.3037 26.5966 10.6643 26.6223 9.77919 26.6223C5.7709 26.6223 3.10643 24.2 1.75334 21.5767C-0.218364 17.7528 -0.18361 11.9292 4.19539 8.44168C5.48824 7.41387 5.83346 7.10085 6.23661 6.42343C6.96181 5.2064 7.65689 4.23932 8.50488 3.40072C9.3552 2.55978 10.319 1.88702 11.5401 1.21194C13.3496 0.20748 15.3699 -0.0961924 17.2003 0.0252766ZM17.0474 2.35655C15.5646 2.25844 14.003 2.51072 12.6545 3.25822C11.5563 3.86557 10.7824 4.42152 10.1291 5.06858C9.46873 5.71797 8.88949 6.50518 8.22453 7.6241C7.57579 8.71265 6.91083 9.25926 5.62957 10.2754C2.36038 12.88 2.1982 17.3743 3.81078 20.4998C4.8673 22.5508 6.83901 24.2841 9.77919 24.2841C10.6202 24.2841 11.225 24.263 11.7115 24.2443H11.7532C12.2143 24.2257 12.6244 24.2093 13.0206 24.235C13.8964 24.2911 14.6308 24.541 16.0025 25.0946C18.3912 26.057 20.926 25.7767 23.0691 24.4289C23.9171 23.8916 24.6469 22.9572 25.1451 21.808C25.6386 20.6633 25.8587 19.4019 25.7707 18.3087C25.6525 16.8744 25.7707 16.1807 25.9213 15.4822L25.9467 15.3654C26.0626 14.8375 26.1831 14.2932 26.1831 13.0972C26.1831 10.5604 25.4463 8.96961 24.6678 7.60541C23.8893 6.23422 23.0992 4.95412 20.7452 3.45678C19.8764 2.90316 18.5441 2.45466 17.0474 2.35655Z" fill="#004FC7" fill-opacity="0.5"/>
</svg>
