<svg width="36" height="32" viewBox="0 0 36 32" fill="none" xmlns="http://www.w3.org/2000/svg">
<path d="M12.885 1.79283C12.885 1.15608 13.4021 0.639893 14.04 0.639893H21.135C21.7729 0.639893 22.29 1.15608 22.29 1.79283V2.61636C22.29 3.25311 21.7729 3.7693 21.135 3.7693H14.04C13.4021 3.7693 12.885 3.25311 12.885 2.61636V1.79283Z" fill="#004FC7"/>
<path d="M2.98341 12.885C3.62061 10.0395 5.6801 7.72158 8.43425 6.75029C14.4879 4.61539 21.0886 4.59709 27.1541 6.6984L27.4703 6.80796C30.1783 7.74611 32.23 9.98386 32.9268 12.7593L35.068 21.2877C35.1985 21.8076 34.8047 22.3114 34.2677 22.3114H1.90234C1.37413 22.3114 0.981981 21.8228 1.09721 21.3082L2.98341 12.885Z" fill="#004FC7"/>
<path d="M4.14002 28.1458C4.14002 26.3265 5.61748 24.8517 7.44002 24.8517H28.89C30.7126 24.8517 32.19 26.3265 32.19 28.1458H4.14002Z" fill="#004FC7"/>
<path d="M3.92002 28.1458C1.48997 28.1458 -0.315594 30.7835 2.0477 31.3492C2.29545 31.4085 2.55406 31.4399 2.82002 31.4399H33.18C33.446 31.4399 33.7046 31.4085 33.9523 31.3492C36.3156 30.7835 34.5101 28.1458 32.08 28.1458H3.92002Z" fill="#004FC7"/>
</svg>
