<svg width="140" height="117" viewBox="0 0 140 117" fill="none" xmlns="http://www.w3.org/2000/svg">
<path d="M50.625 4.37968C50.625 1.96085 52.5838 0 55 0H81.875C84.2912 0 86.25 1.96085 86.25 4.37968V7.50802C86.25 9.92685 84.2912 11.8877 81.875 11.8877H55C52.5838 11.8877 50.625 9.92685 50.625 7.50802V4.37968Z" fill="#004FC7"/>
<path d="M13.1189 46.5155C15.5326 35.7061 23.3336 26.9012 33.766 23.2116C56.6966 15.1017 81.6993 15.0322 104.674 23.0145L105.872 23.4307C116.13 26.9944 123.901 35.4949 126.541 46.0382L134.651 78.4348C135.146 80.4097 133.654 82.3237 131.62 82.3237H9.02394C7.02313 82.3237 5.53773 80.4676 5.9742 78.5129L13.1189 46.5155Z" fill="#004FC7"/>
<path d="M17.5 104.487C17.5 97.5757 23.0964 91.9733 30 91.9733H111.25C118.154 91.9733 123.75 97.5757 123.75 104.487H17.5Z" fill="#004FC7"/>
<path d="M5 104.487C2.23857 104.487 -0.0927389 106.812 0.981664 109.356C2.8789 113.848 7.32174 117 12.5 117H127.5C132.678 117 137.121 113.848 139.018 109.356C140.093 106.812 137.761 104.487 135 104.487H5Z" fill="#004FC7"/>
</svg>
